<?xml version="1.0" standalone="no"?>
<!DOCTYPE svg PUBLIC "-//W3C//DTD SVG 20010904//EN"
 "http://www.w3.org/TR/2001/REC-SVG-20010904/DTD/svg10.dtd">
<svg version="1.0" xmlns="http://www.w3.org/2000/svg"
 width="568.000000pt" height="568.000000pt" viewBox="0 0 568.000000 568.000000"
 preserveAspectRatio="xMidYMid meet">
<metadata>
Created by potrace 1.14, written by Peter Selinger 2001-2017
</metadata>
<g transform="translate(0.000000,568.000000) scale(0.100000,-0.100000)"
fill="#000000" stroke="none">
<path d="M2605 5670 c-22 -5 -53 -11 -70 -14 -153 -28 -346 -96 -485 -171 -36
-19 -80 -42 -97 -52 -18 -9 -33 -20 -33 -25 0 -4 -5 -8 -12 -8 -12 0 -144 -96
-197 -144 -38 -35 -137 -137 -172 -178 -13 -15 -35 -29 -49 -32 -37 -7 -278
-90 -332 -114 -26 -12 -50 -22 -53 -22 -17 0 -271 -134 -345 -182 -262 -169
-433 -373 -486 -578 -19 -76 -17 -311 4 -332 8 -8 87 -12 274 -13 145 -1 264
-3 265 -3 1 -1 -12 -35 -29 -74 -34 -81 -64 -169 -72 -210 -2 -15 -7 -31 -9
-36 -3 -4 -8 -27 -12 -52 -4 -25 -8 -47 -10 -50 -13 -21 -23 -257 -15 -370 8
-115 51 -306 93 -410 12 -30 22 -57 22 -60 1 -7 72 -150 93 -185 34 -59 112
-173 127 -185 8 -7 15 -16 15 -21 0 -8 64 -80 150 -168 116 -119 279 -241 454
-340 107 -60 256 -131 278 -131 7 -1 1 -8 -14 -16 -16 -8 -29 -22 -29 -32 -1
-9 -3 -32 -5 -49 -1 -18 2 -33 6 -33 5 0 12 -9 15 -20 4 -13 15 -20 31 -20 18
0 27 -8 35 -27 23 -60 69 -81 103 -47 13 13 16 13 16 1 0 -28 38 -60 65 -55
16 3 25 1 25 -7 0 -21 41 -65 60 -65 10 0 26 7 35 16 9 9 17 15 18 13 2 -2 8
-16 15 -31 13 -30 55 -47 75 -29 10 8 16 3 25 -23 13 -36 56 -56 75 -37 8 8
14 1 21 -21 14 -42 57 -60 83 -35 17 15 18 14 19 -14 2 -39 28 -77 56 -81 22
-3 23 -8 24 -83 2 -101 0 -95 25 -90 16 3 19 0 14 -16 -14 -42 -12 -68 6 -95
13 -21 15 -32 7 -41 -6 -7 -8 -35 -6 -63 3 -27 2 -49 -1 -48 -21 2 -26 -7 -26
-44 0 -42 -1 -43 -35 -45 -19 0 -41 -1 -48 -2 -10 -1 -12 -19 -11 -66 2 -58 4
-65 23 -66 12 -1 32 -2 46 -2 l25 -2 0 -115 0 -115 67 -3 66 -3 0 73 c0 40 1
94 1 121 l1 47 45 -2 c25 0 50 3 56 9 10 10 15 105 6 120 -3 5 -28 7 -56 6
-36 -2 -51 1 -52 9 -1 17 0 94 2 141 0 24 -6 45 -16 57 -13 14 -15 23 -7 32 9
12 17 47 12 58 -1 3 -4 17 -6 32 -4 21 -1 26 9 22 19 -7 24 10 22 82 -1 57 0
60 21 56 28 -5 64 26 64 56 0 19 3 21 19 12 32 -16 59 -12 73 13 13 23 14 27
18 55 1 10 5 6 11 -13 10 -36 39 -56 69 -48 22 6 45 46 41 72 -2 10 3 11 16 6
41 -18 67 -11 85 23 15 30 17 32 23 13 3 -12 12 -22 18 -23 7 0 19 -2 27 -3
21 -2 50 25 50 47 0 22 18 24 26 3 14 -36 78 -8 90 39 4 18 11 22 32 18 33 -4
61 22 64 60 2 23 5 25 26 17 32 -12 57 3 71 42 9 26 14 29 25 20 23 -19 63 -3
77 31 14 35 3 96 -22 111 -24 15 -64 1 -77 -29 -7 -14 -10 -30 -7 -35 10 -15
-11 -10 -25 5 -23 29 -80 -12 -80 -57 0 -25 -2 -27 -14 -17 -26 20 -60 8 -78
-30 -15 -29 -23 -34 -46 -32 -23 3 -31 -3 -47 -32 -11 -20 -22 -32 -25 -27 -3
4 -16 14 -29 21 -23 12 -27 10 -48 -16 -13 -16 -23 -32 -23 -36 0 -5 -9 1 -20
12 -11 11 -29 20 -40 20 -24 0 -53 -41 -52 -76 0 -14 -3 -22 -7 -17 -11 17
-49 33 -64 27 -13 -5 -29 -30 -41 -64 -3 -11 -6 -10 -11 5 -16 52 -86 55 -104
5 -5 -16 -6 -32 -3 -36 4 -3 -3 -2 -15 5 -12 6 -31 11 -42 11 -24 0 -54 -41
-56 -77 -1 -24 -4 -26 -48 -25 -84 1 -82 1 -69 14 7 7 12 28 12 48 0 66 -50
105 -88 69 -20 -18 -20 -17 -20 17 0 46 -28 77 -64 72 -23 -4 -30 1 -40 23
-17 38 -40 50 -69 35 -22 -11 -25 -9 -34 18 -5 16 -20 35 -32 43 -20 14 -24
13 -48 -11 -21 -21 -25 -22 -25 -7 0 9 -10 28 -21 40 -17 18 -28 22 -51 17
-16 -3 -27 -2 -24 2 3 5 -4 23 -15 41 -17 29 -24 32 -49 28 -24 -5 -30 -2 -36
16 -15 49 -72 85 -89 56 -4 -6 -13 1 -21 17 -17 32 -13 39 13 25 46 -24 280
-92 363 -105 19 -3 46 -8 60 -11 14 -3 41 -8 60 -11 19 -2 46 -7 60 -9 138
-26 645 -26 722 0 7 2 31 6 53 9 22 3 49 7 60 10 46 9 105 18 107 15 2 -1 13
3 25 9 12 7 35 14 50 16 15 2 60 14 98 25 89 27 86 27 110 36 11 4 61 23 110
43 166 64 345 162 490 266 39 28 75 55 81 61 6 5 34 29 61 52 57 48 127 117
191 188 47 51 173 224 194 265 7 14 17 28 23 32 5 4 6 8 2 8 -5 0 0 12 11 27
61 89 147 342 167 488 2 17 7 55 11 85 8 60 7 290 -1 330 -3 14 -8 41 -11 60
-9 58 -12 74 -19 105 -15 60 -59 192 -87 257 -15 37 -28 69 -28 71 0 2 100 3
222 3 154 -1 226 3 237 11 13 9 16 35 16 160 0 155 -2 171 -30 241 -97 241
-325 454 -668 624 -110 55 -333 148 -355 148 -5 0 -26 21 -48 47 -113 137
-177 200 -289 285 -49 37 -95 72 -102 78 -7 5 -14 10 -17 10 -2 0 -33 17 -67
38 -101 62 -335 160 -419 177 -8 2 -33 8 -55 13 -22 6 -53 13 -70 16 -16 3
-41 8 -55 12 -36 10 -587 14 -635 4z"/>
</g>
</svg>
