<svg width="69" height="69" viewBox="0 0 69 69" fill="none" xmlns="http://www.w3.org/2000/svg">
<g clip-path="url(#clip0)">
<path d="M43.8316 37.6237H38.4601V30.2903H43.8316C47.0228 30.2903 49.6099 27.7032 49.6099 24.512V14.4263C49.6099 12.4012 51.2515 10.7596 53.2766 10.7596C55.3017 10.7596 56.9433 12.4012 56.9433 14.4263V24.512C56.9433 31.7535 51.0731 37.6237 43.8316 37.6237Z" fill="#80C56E"/>
<path d="M53.2767 10.7596V24.722C53.2767 29.6878 49.2511 33.7132 44.2854 33.7132H38.4603V37.6237H43.8318C51.0731 37.6237 56.9435 31.7535 56.9435 24.512V14.4263C56.9434 12.4012 55.3018 10.7596 53.2767 10.7596Z" fill="#66AD66"/>
<path d="M33.4368 27.494H20.3209C15.7567 27.494 12.0566 23.7939 12.0566 19.2297V12.4248C12.0566 10.4189 13.6827 8.79279 15.6886 8.79279C17.6946 8.79279 19.3207 10.4189 19.3207 12.4248V19.2297C19.3207 19.7821 19.7685 20.2299 20.3209 20.2299H33.4368V27.494Z" fill="#80C56E"/>
<path d="M20.1366 23.6043H33.4368V20.2299H20.3209C19.7685 20.2299 19.3206 19.7821 19.3206 19.2297V12.4248C19.3206 10.4189 17.6946 8.79279 15.6886 8.79279V19.1564C15.6886 21.6129 17.68 23.6043 20.1366 23.6043Z" fill="#66AD66"/>
<path d="M34.4651 0C30.2725 0 26.8737 3.39878 26.8737 7.59133V53.1498H42.0564V7.59133C42.0564 3.39878 38.6576 0 34.4651 0Z" fill="#80C56E"/>
<path d="M34.465 0C32.9767 0 31.7701 3.86413 31.7701 9.91415V53.1497H37.1599V9.91415C37.1599 3.91049 35.9534 0 34.465 0Z" fill="#66AD66"/>
<path d="M37.16 53.1498V9.91415C37.16 3.91049 35.9534 0 34.4651 0V53.1498H37.16Z" fill="#61A361"/>
<path d="M44.1161 68.9999H24.8139C22.2321 68.9999 20.139 66.9068 20.139 64.325V50.7817H48.791V64.3251C48.791 66.9068 46.6979 68.9999 44.1161 68.9999Z" fill="#FEC37D"/>
<path d="M41.6533 50.7817V64.3251C41.6533 66.907 39.5603 69 36.9784 69H44.1161C46.698 69 48.791 66.907 48.791 64.3251V50.7817H41.6533Z" fill="#F9AE5D"/>
<path d="M50.4744 52.7434H18.4557C18.0632 52.7434 17.7448 52.4251 17.7448 52.0325V49.5307C17.7448 49.1381 18.0632 48.8198 18.4557 48.8198H50.4744C50.8669 48.8198 51.1852 49.1381 51.1852 49.5307V52.0325C51.1851 52.4252 50.8669 52.7434 50.4744 52.7434Z" fill="#F2A559"/>
<path d="M50.4744 48.82H44.1395V52.7434H50.4744C50.8669 52.7434 51.1853 52.4251 51.1853 52.0325V49.5307C51.1851 49.1383 50.8669 48.82 50.4744 48.82Z" fill="#EA8F3D"/>
</g>
<defs>
<clipPath id="clip0">
<rect width="69" height="69" fill="white"/>
</clipPath>
</defs>
</svg>
